<?xml version="1.0" encoding="UTF-8"?>
<svg xmlns="http://www.w3.org/2000/svg" viewBox="0 0 688 496" width="688" height="496" font-family="sans-serif" font-size="12">
<title>plan-dnis-implementation — Gantt</title>
<desc>Profile: profile:planning:0.1 v0.1.0. 16 scheduled, 0 unscheduled.</desc>
<style><![CDATA[
  .grid { stroke: #e5e7eb; stroke-width: 1; }
  .axis-label { fill: #6b7280; font-size: 10px; }
  .row-label { fill: #111827; font-size: 12px; }
  .row-label-summary { fill: #6b7280; font-size: 10px; }
  .now-line { stroke: #dc2626; stroke-width: 1.5; stroke-dasharray: 4 2; }
  .now-label { fill: #dc2626; font-size: 10px; font-weight: bold; }
  .title { fill: #111827; font-size: 16px; font-weight: bold; }
  .subtitle { fill: #6b7280; font-size: 11px; }
  .bar-text { fill: #ffffff; font-size: 10px; pointer-events: none; }
  .bar-ai { stroke: #2563eb; stroke-width: 2; }
  .bar-human { stroke: #059669; stroke-width: 2; }
  .bar-either { stroke: #7c3aed; stroke-width: 2; }
  .unscheduled-header { fill: #111827; font-size: 12px; font-weight: bold; }
  .unscheduled-row { fill: #6b7280; font-size: 11px; }
]]></style>
<text class="title" x="240" y="24">plan-dnis-implementation — Gantt</text>
<text class="subtitle" x="240" y="42">16 scheduled, 0 unscheduled · profile profile:planning:0.1 v0.1.0</text>
<line class="grid" x1="240" y1="72" x2="240" y2="464" />
<text class="axis-label" x="242" y="68">2026-05-04</text>
<line class="grid" x1="264" y1="72" x2="264" y2="464" />
<line class="grid" x1="288" y1="72" x2="288" y2="464" />
<text class="axis-label" x="290" y="68">2026-05-06</text>
<line class="grid" x1="312" y1="72" x2="312" y2="464" />
<line class="grid" x1="336" y1="72" x2="336" y2="464" />
<text class="axis-label" x="338" y="68">2026-05-08</text>
<line class="grid" x1="360" y1="72" x2="360" y2="464" />
<line class="grid" x1="384" y1="72" x2="384" y2="464" />
<text class="axis-label" x="386" y="68">2026-05-10</text>
<line class="grid" x1="408" y1="72" x2="408" y2="464" />
<line class="grid" x1="432" y1="72" x2="432" y2="464" />
<text class="axis-label" x="434" y="68">2026-05-12</text>
<line class="grid" x1="456" y1="72" x2="456" y2="464" />
<line class="grid" x1="480" y1="72" x2="480" y2="464" />
<text class="axis-label" x="482" y="68">2026-05-14</text>
<line class="grid" x1="504" y1="72" x2="504" y2="464" />
<line class="grid" x1="528" y1="72" x2="528" y2="464" />
<text class="axis-label" x="530" y="68">2026-05-16</text>
<line class="grid" x1="552" y1="72" x2="552" y2="464" />
<line class="grid" x1="576" y1="72" x2="576" y2="464" />
<text class="axis-label" x="578" y="68">2026-05-18</text>
<line class="grid" x1="600" y1="72" x2="600" y2="464" />
<line class="grid" x1="624" y1="72" x2="624" y2="464" />
<text class="axis-label" x="626" y="68">2026-05-20</text>
<line class="grid" x1="648" y1="72" x2="648" y2="464" />
<line class="grid" x1="672" y1="72" x2="672" y2="464" />
<text class="axis-label" x="674" y="68">2026-05-22</text>
<line class="now-line" x1="240" y1="72" x2="240" y2="464" />
<text class="now-label" x="244" y="478">now</text>
<text class="row-label" x="8" y="96">task:contract-audit</text>
<rect class="bar-either" x="240" y="82" width="24" height="20" fill="#6b7280" rx="2" ry="2"><title>task:contract-audit — contract-audit
Done / Either
2026-05-04 → 2026-05-04</title></rect>
<text class="row-label" x="8" y="120">task:data-model</text>
<rect class="bar-either" x="264" y="106" width="24" height="20" fill="#6b7280" rx="2" ry="2"><title>task:data-model — data-model
Done / Either
2026-05-05 → 2026-05-05</title></rect>
<text class="row-label" x="8" y="144">task:position-engine</text>
<rect class="bar-either" x="288" y="130" width="24" height="20" fill="#6b7280" rx="2" ry="2"><title>task:position-engine — position-engine
Done / Either
2026-05-06 → 2026-05-06</title></rect>
<text class="row-label" x="8" y="168">task:operation-core</text>
<rect class="bar-either" x="312" y="154" width="24" height="20" fill="#6b7280" rx="2" ry="2"><title>task:operation-core — operation-core
Done / Either
2026-05-07 → 2026-05-07</title></rect>
<text class="row-label" x="8" y="192">task:compact-operation</text>
<rect class="bar-either" x="336" y="178" width="24" height="20" fill="#6b7280" rx="2" ry="2"><title>task:compact-operation — compact-operation
Done / Either
2026-05-08 → 2026-05-08</title></rect>
<text class="row-label" x="8" y="216">task:operation-lineage</text>
<rect class="bar-either" x="336" y="202" width="24" height="20" fill="#6b7280" rx="2" ry="2"><title>task:operation-lineage — operation-lineage
Done / Either
2026-05-08 → 2026-05-08</title></rect>
<text class="row-label" x="8" y="240">task:idempotency-log</text>
<rect class="bar-either" x="360" y="226" width="24" height="20" fill="#6b7280" rx="2" ry="2"><title>task:idempotency-log — idempotency-log
Done / Either
2026-05-09 → 2026-05-09</title></rect>
<text class="row-label" x="8" y="264">task:hashing-canonicalization</text>
<rect class="bar-either" x="432" y="250" width="24" height="20" fill="#6b7280" rx="2" ry="2"><title>task:hashing-canonicalization — hashing-canonicalization
Done / Either
2026-05-12 → 2026-05-12</title></rect>
<text class="row-label" x="8" y="288">task:reference-resolution</text>
<rect class="bar-either" x="432" y="274" width="24" height="20" fill="#6b7280" rx="2" ry="2"><title>task:reference-resolution — reference-resolution
Done / Either
2026-05-12 → 2026-05-12</title></rect>
<text class="row-label" x="8" y="312">task:tv-l1-harness</text>
<rect class="bar-either" x="456" y="298" width="48" height="20" fill="#6b7280" rx="2" ry="2"><title>task:tv-l1-harness — tv-l1-harness
Done / Either
2026-05-13 → 2026-05-14</title></rect>
<text class="row-label" x="8" y="336">task:level2-concurrency</text>
<rect class="bar-either" x="504" y="322" width="24" height="20" fill="#6b7280" rx="2" ry="2"><title>task:level2-concurrency — level2-concurrency
Done / Either
2026-05-15 → 2026-05-15</title></rect>
<text class="row-label" x="8" y="360">task:tv-l2-harness</text>
<rect class="bar-either" x="528" y="346" width="24" height="20" fill="#6b7280" rx="2" ry="2"><title>task:tv-l2-harness — tv-l2-harness
Done / Either
2026-05-16 → 2026-05-16</title></rect>
<text class="row-label" x="8" y="384">task:security-privacy-boundary</text>
<rect class="bar-either" x="600" y="370" width="24" height="20" fill="#94a3b8" rx="2" ry="2"><title>task:security-privacy-boundary — security-privacy-boundary
Backlog / Either
2026-05-19 → 2026-05-19</title></rect>
<text class="row-label" x="8" y="408">task:level3-profile</text>
<rect class="bar-human" x="624" y="394" width="24" height="20" fill="#94a3b8" rx="2" ry="2"><title>task:level3-profile — level3-profile
Backlog / Human
2026-05-20 → 2026-05-20</title></rect>
<text class="row-label" x="8" y="432">task:spec-feedback-loop</text>
<rect class="bar-either" x="624" y="418" width="24" height="20" fill="#6b7280" rx="2" ry="2"><title>task:spec-feedback-loop — spec-feedback-loop
Done / Either
2026-05-20 → 2026-05-20</title></rect>
<text class="row-label" x="8" y="456">task:rollout-review</text>
<rect class="bar-human" x="648" y="442" width="24" height="20" fill="#94a3b8" rx="2" ry="2"><title>task:rollout-review — rollout-review
Backlog / Human
2026-05-21 → 2026-05-21</title></rect>
</svg>